<svg width="16" height="16" viewBox="0 0 16 16" fill="none" xmlns="http://www.w3.org/2000/svg">
<path d="M1.82819 9.02146L1.82871 9.02194L7.47553 14.2938C7.61708 14.4259 7.80443 14.4999 8 14.4999C8.19557 14.4999 8.38292 14.4259 8.52447 14.2938L14.1713 9.02194L14.1718 9.02146C15.0198 8.23208 15.5 7.12422 15.5 5.96555V5.7843C15.5 3.84436 14.0986 2.19044 12.1866 1.87125L1.82819 9.02146ZM1.82819 9.02146C0.98024 8.23208 0.5 7.12422 0.5 5.96555V5.7843C0.5 3.84435 1.90141 2.19044 3.81345 1.87125L1.82819 9.02146ZM8 3.70703L7.64645 3.35348L7.27145 2.97848C6.3669 2.07393 5.07925 1.66032 3.81357 1.87123L8 3.70703ZM8 3.70703L8.35355 3.35348M8 3.70703L8.35355 3.35348M8.35355 3.35348L8.72855 2.97848C9.6331 2.07393 10.9208 1.66032 12.1864 1.87123L8.35355 3.35348Z" stroke="#39C5BB"/>
</svg>
