<svg width="8" height="8" viewBox="0 0 8 8" fill="none" xmlns="http://www.w3.org/2000/svg">
<g clip-path="url(#clip0_16_1207)">
<path d="M0.74375 4.69383L3.56719 7.32977C3.68438 7.43915 3.83906 7.50008 4 7.50008C4.16094 7.50008 4.31563 7.43915 4.43281 7.32977L7.25625 4.69383C7.73125 4.25165 8 3.63133 8 2.9829V2.89227C8 1.80008 7.21094 0.868834 6.13438 0.689146C5.42188 0.570396 4.69687 0.803209 4.1875 1.31258L4 1.50008L3.8125 1.31258C3.30313 0.803209 2.57812 0.570396 1.86563 0.689146C0.789062 0.868834 0 1.80008 0 2.89227V2.9829C0 3.63133 0.26875 4.25165 0.74375 4.69383Z" fill="#39C5BB"/>
</g>
<defs>
<clipPath id="clip0_16_1207">
<rect width="8" height="8" fill="white"/>
</clipPath>
</defs>
</svg>
