<svg width="8" height="8" viewBox="0 0 8 8" fill="none" xmlns="http://www.w3.org/2000/svg">
<g clip-path="url(#clip0_16_1207)">
<path d="M1.08444 4.32787L1.08496 4.32835L3.90835 6.96424C3.90836 6.96426 3.90838 6.96427 3.9084 6.96429C3.93275 6.98699 3.96539 7.00008 4 7.00008C4.03463 7.00008 4.0673 6.98697 4.09165 6.96424L6.91504 4.32835L6.91556 4.32787C7.28851 3.98068 7.5 3.49313 7.5 2.9829V2.89227C7.5 2.04452 6.88766 1.32185 6.05218 1.18234L1.08444 4.32787ZM1.08444 4.32787C0.711489 3.98068 0.5 3.49313 0.5 2.9829V2.89227C0.5 2.04452 1.11234 1.32185 1.94782 1.18234L1.08444 4.32787ZM4 2.20719L3.64645 1.85364L3.45895 1.66614C3.06378 1.27097 2.50112 1.09017 1.94794 1.18232L4 2.20719ZM4 2.20719L4.35355 1.85364M4 2.20719L4.35355 1.85364M4.35355 1.85364L4.54105 1.66614C4.93622 1.27097 5.49888 1.09017 6.05206 1.18232L4.35355 1.85364Z" stroke="black"/>
</g>
<defs>
<clipPath id="clip0_16_1207">
<rect width="8" height="8" fill="white"/>
</clipPath>
</defs>
</svg>
