<svg width="12" height="12" viewBox="0 0 12 12" fill="none" xmlns="http://www.w3.org/2000/svg">
<path d="M0 5.25046C0 5.6653 0.335156 6.00046 0.75 6.00046C1.16484 6.00046 1.5 5.6653 1.5 5.25046C1.5 4.00827 2.50781 3.00046 3.75 3.00046H7.5V3.75046C7.5 4.0528 7.68281 4.32702 7.96406 4.44421C8.24531 4.56139 8.56641 4.49577 8.78203 4.28249L10.282 2.78249C10.575 2.48952 10.575 2.01374 10.282 1.72077L8.78203 0.220768C8.56641 0.00514322 8.24531 -0.058138 7.96406 0.0590495C7.68281 0.176237 7.5 0.448112 7.5 0.750456V1.50046H3.75C1.67812 1.50046 0 3.17858 0 5.25046ZM12 6.75046C12 6.33561 11.6648 6.00046 11.25 6.00046C10.8352 6.00046 10.5 6.33561 10.5 6.75046C10.5 7.99264 9.49219 9.00046 8.25 9.00046H4.5V8.25046C4.5 7.94811 4.31719 7.67389 4.03594 7.55671C3.75469 7.43952 3.43359 7.50514 3.21797 7.71842L1.71797 9.21842C1.425 9.51139 1.425 9.98717 1.71797 10.2801L3.21797 11.7801C3.43359 11.9958 3.75469 12.059 4.03594 11.9419C4.31719 11.8247 4.5 11.5528 4.5 11.2481V10.5005H8.25C10.3219 10.5005 12 8.82233 12 6.75046Z" fill="#39C5BB"/>
</svg>
