<svg id="Capa_4" data-name="Capa 4" xmlns="http://www.w3.org/2000/svg" xmlns:xlink="http://www.w3.org/1999/xlink" viewBox="0 0 299.5 299.5"><defs><style>.cls-1{fill:#fff;}.cls-2{fill-rule:evenodd;}.cls-3{fill:none;}.cls-3,.cls-6{stroke:#39c5bb;stroke-width:2px;}.cls-4{mask:url(#mask);}.cls-5,.cls-6{fill:#39c5bb;}.cls-6{stroke-miterlimit:10;}</style><mask id="mask" x="161.3" y="130.53" width="62.89" height="62.89" maskUnits="userSpaceOnUse"><g transform="translate(-0.33 -747.5)"><g id="path-2-outside-1_177_166" data-name="path-2-outside-1 177 166"><rect class="cls-1" x="161.63" y="878.03" width="62.89" height="62.89"/><path class="cls-2" d="M199.28,937.52c-.27-2.45-3.2-4.38-6.79-4.38s-6.52,1.93-6.79,4.38a28.06,28.06,0,0,1-7.95-3.32c1.53-1.92.81-5.35-1.72-7.88s-5.9-3.23-7.83-1.75a28.19,28.19,0,0,1-3.25-7.93c2.4-.35,4.27-3.25,4.27-6.78s-1.83-6.36-4.19-6.76a28.23,28.23,0,0,1,3.3-7.85c1.95,1.35,5.25.61,7.7-1.84s3.19-5.7,1.88-7.66a27.89,27.89,0,0,1,7.84-3.23c.47,2.3,3.31,4.07,6.74,4.07s6.27-1.77,6.74-4.07a27.89,27.89,0,0,1,7.84,3.23c-1.31,2-.56,5.22,1.88,7.66s5.75,3.19,7.7,1.84a28.23,28.23,0,0,1,3.3,7.85c-2.36.4-4.19,3.27-4.19,6.76s1.87,6.43,4.27,6.78a28.17,28.17,0,0,1-3.24,7.93c-1.93-1.48-5.33-.76-7.84,1.75s-3.24,6-1.72,7.88A28.06,28.06,0,0,1,199.28,937.52Z"/></g></g></mask></defs><circle class="cls-3" cx="191.03" cy="162.52" r="90.97"/><g class="cls-4"><path class="cls-5" d="M199.28,937.52l.53,2.18-2.49.62-.28-2.56Zm-13.58,0,2.24.24-.28,2.56-2.49-.62Zm-7.95-3.32-1.17,1.92-2.17-1.33,1.58-2ZM176,926.32l1.59-1.59h0Zm-7.83-1.75,1.36,1.78-2,1.54-1.3-2.16ZM165,916.64l-2.18.52-.57-2.4,2.43-.35ZM165,903.1l-.37,2.22-2.4-.4.59-2.36Zm3.3-7.85-1.91-1.17,1.24-2,2,1.36Zm7.7-1.84,1.59,1.59Zm1.88-7.66L176,887l-1.31-2,2-1.21Zm7.84-3.23-.53-2.18,2.27-.56.46,2.29Zm13.48,0-2.2-.45.46-2.29,2.27.56Zm7.84,3.23,1.16-1.93,2,1.22-1.31,2Zm9.58,9.5-1.28-1.84,1.95-1.36,1.25,2Zm3.3,7.85,2.18-.54.59,2.36-2.4.4Zm.08,13.54.32-2.23,2.44.35-.58,2.4Zm-3.24,7.93,1.92,1.16-1.3,2.16-2-1.54ZM209,926.32l-1.59-1.59h0Zm-1.72,7.88,1.76-1.4,1.58,2-2.16,1.33Zm-14.74-3.31a10.83,10.83,0,0,1,5.86,1.64,6.58,6.58,0,0,1,3.16,4.75l-4.47.48a2.2,2.2,0,0,0-1.13-1.47,6.45,6.45,0,0,0-3.42-.91Zm-9,6.39a6.58,6.58,0,0,1,3.16-4.75,10.83,10.83,0,0,1,5.86-1.64v4.49a6.45,6.45,0,0,0-3.42.91,2.2,2.2,0,0,0-1.13,1.47Zm-4.55-5a25.72,25.72,0,0,0,7.32,3.05l-1.07,4.36a30.49,30.49,0,0,1-8.59-3.58Zm-1.3-7.56a10.9,10.9,0,0,1,3,5.29,6.65,6.65,0,0,1-1.1,5.58L176,932.8a2.22,2.22,0,0,0,.23-1.84,6.41,6.41,0,0,0-1.77-3.05Zm-10.79-1.94a6.63,6.63,0,0,1,5.55-1,10.83,10.83,0,0,1,5.24,3l-3.17,3.18a6.48,6.48,0,0,0-3-1.77,2.3,2.3,0,0,0-1.86.21Zm.31-6.68a25.91,25.91,0,0,0,3,7.31l-3.85,2.31a30.26,30.26,0,0,1-3.5-8.57Zm4.32-6.25a10.86,10.86,0,0,1-1.58,5.79,6.68,6.68,0,0,1-4.61,3.21l-.64-4.45a2.26,2.26,0,0,0,1.46-1.17,6.42,6.42,0,0,0,.88-3.38Zm-6.06-9a6.71,6.71,0,0,1,4.51,3.24,10.86,10.86,0,0,1,1.55,5.73H167a6.42,6.42,0,0,0-.87-3.35,2.3,2.3,0,0,0-1.44-1.19Zm4.85-4.46a25.79,25.79,0,0,0-3,7.22l-4.36-1.09a30.33,30.33,0,0,1,3.57-8.48Zm7.37-1.43a10.89,10.89,0,0,1-5.11,2.94,6.75,6.75,0,0,1-5.46-.84l2.56-3.69a2.39,2.39,0,0,0,1.87.16,6.48,6.48,0,0,0,3-1.75Zm2.16-10.5a6.82,6.82,0,0,1,.78,5.43,11,11,0,0,1-2.94,5.07l-3.17-3.18a6.39,6.39,0,0,0,1.74-3A2.37,2.37,0,0,0,176,887Zm6.5.2a26,26,0,0,0-7.21,3l-2.32-3.84a30.21,30.21,0,0,1,8.47-3.49Zm6.21,4.14a10.86,10.86,0,0,1-5.65-1.51,6.8,6.8,0,0,1-3.29-4.36l4.4-.9a2.45,2.45,0,0,0,1.23,1.43,6.49,6.49,0,0,0,3.31.84Zm8.94-5.87a6.8,6.8,0,0,1-3.29,4.36,10.86,10.86,0,0,1-5.65,1.51v-4.5a6.46,6.46,0,0,0,3.31-.84,2.45,2.45,0,0,0,1.23-1.43Zm4.48,4.7a26,26,0,0,0-7.21-3l1.06-4.36a30.19,30.19,0,0,1,8.47,3.48Zm1.45,7.33a11,11,0,0,1-2.94-5.08,6.84,6.84,0,0,1,.78-5.42l3.74,2.5a2.37,2.37,0,0,0-.15,1.87,6.33,6.33,0,0,0,1.75,3Zm10.57,2.1a6.75,6.75,0,0,1-5.46.84,10.89,10.89,0,0,1-5.11-2.94l3.18-3.18a6.41,6.41,0,0,0,3,1.75,2.39,2.39,0,0,0,1.87-.16Zm-.16,6.55a25.76,25.76,0,0,0-3-7.22l3.83-2.35a30.19,30.19,0,0,1,3.56,8.48Zm-4.25,6.21a10.86,10.86,0,0,1,1.55-5.73,6.75,6.75,0,0,1,4.51-3.24l.74,4.43a2.3,2.3,0,0,0-1.44,1.19,6.39,6.39,0,0,0-.87,3.35Zm6.19,9a6.68,6.68,0,0,1-4.61-3.21,10.86,10.86,0,0,1-1.58-5.79H218a6.33,6.33,0,0,0,.89,3.38,2.23,2.23,0,0,0,1.45,1.17Zm-4.85,4.56a25.91,25.91,0,0,0,3-7.31l4.37,1a30.26,30.26,0,0,1-3.5,8.57Zm-7.5,1.31a10.87,10.87,0,0,1,5.24-3,6.69,6.69,0,0,1,5.56,1l-2.74,3.56a2.27,2.27,0,0,0-1.85-.21,6.39,6.39,0,0,0-3,1.77Zm-1.88,10.87a6.62,6.62,0,0,1-1.11-5.58,10.9,10.9,0,0,1,3-5.29l3.18,3.18a6.24,6.24,0,0,0-1.77,3.05,2.19,2.19,0,0,0,.22,1.84Zm-6.74-.26a25.72,25.72,0,0,0,7.32-3.05l2.35,3.83a30.38,30.38,0,0,1-8.6,3.58Z" transform="translate(-0.33 -747.5)"/></g><line class="cls-3" x1="192.3" y1="160.73" x2="192.27" y2="150.78"/><line class="cls-3" x1="202.2" y1="168.45" x2="193.58" y2="163.47"/><line class="cls-3" x1="190.73" y1="163.47" x2="182.11" y2="168.45"/><circle class="cls-6" cx="192.16" cy="162.44" r="1.72"/><path class="cls-3" d="M210.46,910c0,10.6-8.1,19.09-18,19.09s-18-8.49-18-19.09,8.11-19.09,18-19.09S210.46,899.41,210.46,910Z" transform="translate(-0.33 -747.5)"/><circle class="cls-3" cx="191.81" cy="162" r="48.47"/><line class="cls-3" x1="193.28" y1="253.53" x2="24.5" y2="253.53"/><path class="cls-5" d="M297.83,749.5V1045H2.33V749.5h295.5m2-2H.33V1047h299.5V747.5Z" transform="translate(-0.33 -747.5)"/></svg>