<?xml version="1.0" encoding="utf-8"?>
<!-- Generator: Adobe Illustrator 24.1.0, SVG Export Plug-In . SVG Version: 6.00 Build 0)  -->
<svg version="1.1" xmlns="http://www.w3.org/2000/svg" xmlns:xlink="http://www.w3.org/1999/xlink" x="0px" y="0px"
	 viewBox="0 0 299.5 299.5" style="enable-background:new 0 0 299.5 299.5;" xml:space="preserve">
<style type="text/css">
	.st0{display:none;}
	.st1{display:inline;fill:#333333;stroke:#FFFFFF;stroke-width:43;}
	.st2{display:inline;}
	.st3{fill:#FFFFFF;}
	.st4{display:inline;fill:none;stroke:#FFFFFF;stroke-width:4;}
	.st5{display:inline;fill:#39C5BB;stroke:#FFFFFF;stroke-width:4;stroke-miterlimit:10;}
	.st6{display:inline;fill:#FFFFFF;}
	.st7{fill:none;}
	.st8{font-family:'MyriadPro-Regular';}
	.st9{font-size:138.1113px;}
	.st10{fill:none;stroke:#FFFFFF;stroke-width:10;}
</style>
<g id="Capa_2" class="st0">
	<rect x="-10.7" y="-15" class="st1" width="324.3" height="328"/>
</g>
<g id="Capa_4" class="st0">
	<g class="st2">
		<path class="st3" d="M200.4,115.5c25,0,45.4,20.4,45.4,45.4s-20.4,45.4-45.4,45.4S154.9,186,154.9,161S175.3,115.5,200.4,115.5
			 M200.4,76.5c-46.6,0-84.4,37.8-84.4,84.4c0,46.6,37.8,84.4,84.4,84.4c46.6,0,84.4-37.8,84.4-84.4
			C284.8,114.3,247,76.5,200.4,76.5L200.4,76.5z"/>
	</g>
	<g class="st2">
		<path class="st3" d="M207.7,186.5l0.5,2l-2.3,0.6l-0.3-2.4L207.7,186.5z M195.1,186.5l2.1,0.2l-0.3,2.4l-2.3-0.6L195.1,186.5z
			 M187.7,183.4l-1.1,1.8l-2-1.2l1.5-1.9L187.7,183.4z M186.1,176.1l1.5-1.5l0,0L186.1,176.1z M178.8,174.5l1.3,1.7l-1.9,1.4l-1.2-2
			L178.8,174.5z M175.9,167.1l-2,0.5l-0.5-2.2l2.3-0.3L175.9,167.1z M175.9,154.5l-0.3,2.1l-2.2-0.4l0.5-2.2L175.9,154.5z
			 M179,147.3l-1.8-1.1l1.2-1.9l1.9,1.3L179,147.3z M186.1,145.5l1.5,1.5L186.1,145.5z M187.8,138.4l-1.7,1.2l-1.2-1.9l1.9-1.1
			L187.8,138.4z M195.1,135.4l-0.5-2l2.1-0.5l0.4,2.1L195.1,135.4z M207.6,135.4l-2-0.4l0.4-2.1l2.1,0.5L207.6,135.4z M214.9,138.4
			l1.1-1.8l1.9,1.1l-1.2,1.9L214.9,138.4z M223.8,147.3l-1.2-1.7l1.8-1.3l1.2,1.9L223.8,147.3z M226.9,154.5l2-0.5l0.5,2.2l-2.2,0.4
			L226.9,154.5z M226.9,167.1l0.3-2.1l2.3,0.3l-0.5,2.2L226.9,167.1z M223.9,174.5l1.8,1.1l-1.2,2l-1.9-1.4L223.9,174.5z
			 M216.7,176.1l-1.5-1.5l0,0L216.7,176.1z M215.1,183.4l1.6-1.3l1.5,1.9l-2,1.2L215.1,183.4z M201.4,180.3c1.9,0,3.8,0.5,5.4,1.5
			c1.6,0.9,2.7,2.6,2.9,4.4l-4.1,0.4c-0.1-0.6-0.5-1.1-1-1.4c-1-0.6-2.1-0.9-3.2-0.8V180.3z M193.1,186.3c0.3-1.8,1.3-3.5,2.9-4.4
			c1.6-1,3.5-1.5,5.4-1.5v4.2c-1.1,0-2.2,0.3-3.2,0.8c-0.5,0.3-0.9,0.8-1,1.4L193.1,186.3z M188.9,181.6c2.1,1.3,4.4,2.2,6.8,2.8
			l-1,4c-2.8-0.7-5.5-1.8-8-3.3L188.9,181.6z M187.7,174.6c1.4,1.3,2.3,3,2.8,4.9c0.5,1.8,0.1,3.7-1,5.2l-3.3-2.6
			c0.3-0.5,0.4-1.1,0.2-1.7c-0.3-1.1-0.8-2.1-1.6-2.8L187.7,174.6z M177.7,172.8c1.5-1.1,3.4-1.4,5.2-0.9c1.9,0.4,3.5,1.4,4.9,2.8
			l-2.9,3c-0.8-0.8-1.7-1.4-2.8-1.6c-0.6-0.2-1.2-0.1-1.7,0.2L177.7,172.8z M177.9,166.6c0.6,2.4,1.5,4.7,2.8,6.8l-3.6,2.1
			c-1.5-2.5-2.6-5.2-3.2-8L177.9,166.6z M181.9,160.8c0,1.9-0.5,3.8-1.5,5.4c-0.9,1.6-2.5,2.7-4.3,3l-0.6-4.1
			c0.6-0.1,1.1-0.5,1.4-1.1c0.6-1,0.8-2,0.8-3.1H181.9z M176.3,152.5c1.8,0.4,3.3,1.4,4.2,3c1,1.6,1.5,3.4,1.4,5.3h-4.2
			c0-1.1-0.3-2.2-0.8-3.1c-0.3-0.5-0.8-0.9-1.3-1.1L176.3,152.5z M180.8,148.3c-1.3,2.1-2.2,4.3-2.8,6.7l-4-1
			c0.7-2.8,1.8-5.4,3.3-7.9L180.8,148.3z M187.7,147c-1.3,1.3-2.9,2.3-4.7,2.7c-1.7,0.5-3.6,0.2-5.1-0.8l2.4-3.4
			c0.5,0.3,1.2,0.3,1.7,0.1c1.1-0.3,2-0.8,2.8-1.6L187.7,147z M189.7,137.2c0.9,1.5,1.2,3.3,0.7,5c-0.5,1.8-1.4,3.4-2.7,4.7l-2.9-3
			c0.8-0.8,1.3-1.7,1.6-2.8c0.1-0.6,0.1-1.2-0.2-1.7L189.7,137.2z M195.7,137.4c-2.4,0.6-4.6,1.5-6.7,2.8l-2.2-3.6
			c2.4-1.5,5.1-2.6,7.9-3.2L195.7,137.4z M201.5,141.3c-1.8,0-3.7-0.5-5.2-1.4c-1.5-0.9-2.6-2.3-3.1-4l4.1-0.8
			c0.2,0.6,0.6,1.1,1.1,1.3c0.9,0.5,2,0.8,3.1,0.8V141.3z M209.8,135.8c-0.4,1.7-1.5,3.2-3.1,4c-1.6,0.9-3.4,1.4-5.2,1.4v-4.2
			c1.1,0,2.1-0.2,3.1-0.8c0.5-0.3,1-0.8,1.1-1.3L209.8,135.8z M213.9,140.2c-2.1-1.3-4.3-2.2-6.7-2.8l1-4c2.8,0.7,5.4,1.8,7.9,3.2
			L213.9,140.2z M215.3,147c-1.3-1.3-2.3-2.9-2.7-4.7c-0.5-1.7-0.2-3.5,0.7-5l3.5,2.3c-0.3,0.5-0.3,1.2-0.1,1.7
			c0.3,1.1,0.8,2,1.6,2.8L215.3,147z M225.1,148.9c-1.5,1-3.3,1.3-5.1,0.8c-1.8-0.5-3.4-1.4-4.7-2.7l3-3c0.8,0.8,1.7,1.3,2.8,1.6
			c0.6,0.2,1.2,0.1,1.7-0.1L225.1,148.9z M224.9,155c-0.6-2.4-1.5-4.6-2.8-6.7l3.6-2.2c1.5,2.4,2.6,5.1,3.3,7.9L224.9,155z
			 M221,160.8c0-1.9,0.5-3.7,1.4-5.3c0.9-1.6,2.4-2.7,4.2-3l0.7,4.1c-0.6,0.2-1.1,0.6-1.3,1.1c-0.6,0.9-0.8,2-0.8,3.1H221z
			 M226.7,169.1c-1.8-0.3-3.4-1.4-4.3-3c-1-1.6-1.5-3.5-1.5-5.4h4.1c0,1.1,0.3,2.2,0.8,3.1c0.3,0.5,0.8,0.9,1.3,1.1L226.7,169.1z
			 M222.2,173.4c1.3-2.1,2.2-4.4,2.8-6.8l4.1,0.9c-0.7,2.8-1.8,5.5-3.2,8L222.2,173.4z M215.3,174.6c1.3-1.4,3-2.3,4.9-2.8
			c1.8-0.5,3.7-0.1,5.2,0.9l-2.5,3.3c-0.5-0.3-1.1-0.4-1.7-0.2c-1.1,0.3-2,0.8-2.8,1.6L215.3,174.6z M213.5,184.7
			c-1.1-1.5-1.5-3.4-1-5.2c0.4-1.9,1.4-3.6,2.8-4.9l3,3c-0.8,0.8-1.4,1.7-1.6,2.8c-0.2,0.6-0.1,1.2,0.2,1.7L213.5,184.7z
			 M207.3,184.4c2.4-0.6,4.7-1.5,6.8-2.8l2.2,3.6c-2.5,1.5-5.2,2.6-8,3.3L207.3,184.4z"/>
	</g>
	<line class="st4" x1="201.5" y1="159.3" x2="201.5" y2="150.1"/>
	<line class="st4" x1="210.7" y1="166.5" x2="202.7" y2="161.8"/>
	<line class="st4" x1="200.1" y1="161.8" x2="192.1" y2="166.5"/>
	<circle class="st5" cx="201.4" cy="160.9" r="1.6"/>
	<path class="st4" d="M218.1,160.9c0,9.8-7.5,17.7-16.7,17.7s-16.7-7.9-16.7-17.7s7.5-17.7,16.7-17.7S218.1,151.1,218.1,160.9z"/>
	<circle class="st4" cx="201.1" cy="160.5" r="45"/>
	<line class="st4" x1="202.3" y1="79.5" x2="45.7" y2="79.5"/>
	<g>
		<path class="st6" d="M295.5,4v291.5H4V4H295.5 M299.5,0H0v299.5h299.5V0L299.5,0z"/>
	</g>
</g>
<g id="Capa_3">
	<rect x="19.3" y="148.4" class="st7" width="88.7" height="114.1"/>
	<text transform="matrix(1 0 0 1 19.3486 246.4824)" class="st3 st8 st9">+</text>
	<g class="st0">
		<path class="st6" d="M270.3,82.1v154.5H108.1v-64.2v-10h-10H33.9V82.1H270.3 M280.3,72.1H23.9v100.2h74.2v74.2h182.2V72.1
			L280.3,72.1z"/>
	</g>
	<polyline class="st10" points="98.3,246.6 280.3,246.6 280.3,72.1 23.9,72.1 23.9,172.3 	"/>
	<circle class="st10" cx="214.6" cy="155.9" r="34.1"/>
	<line class="st10" x1="214.6" y1="121.8" x2="121.3" y2="121.8"/>
</g>
</svg>
