<svg width="20" height="18" viewBox="0 0 20 18" fill="none" xmlns="http://www.w3.org/2000/svg">
<path d="M10.4558 17.6406C10.8551 17.4375 11.1121 16.9922 11.1121 16.5V1.50002C11.1121 1.00783 10.8551 0.562515 10.4558 0.35939C10.0564 0.156265 9.58764 0.238297 9.26122 0.566422L4.57679 5.25002H2.22242C0.996614 5.25002 0 6.37111 0 7.75002V10.25C0 11.6289 0.996614 12.75 2.22242 12.75H4.57679L9.26122 17.4336C9.58764 17.7617 10.0564 17.8399 10.4558 17.6406ZM14.7582 12.4766L16.6681 10.3281L18.578 12.4766C18.9044 12.8438 19.4322 12.8438 19.7552 12.4766C20.0781 12.1094 20.0816 11.5156 19.7552 11.1524L17.8453 9.00392L19.7552 6.85548C20.0816 6.4883 20.0816 5.89455 19.7552 5.53127C19.4288 5.16798 18.9009 5.16408 18.578 5.53127L16.6681 7.6797L14.7582 5.53127C14.4318 5.16408 13.904 5.16408 13.581 5.53127C13.2581 5.89845 13.2546 6.4922 13.581 6.85548L15.4909 9.00392L13.581 11.1524C13.2546 11.5195 13.2546 12.1133 13.581 12.4766C13.9075 12.8399 14.4353 12.8438 14.7582 12.4766Z" fill="white"/>
</svg>
