<svg width="21" height="15" viewBox="0 0 21 15" fill="none" xmlns="http://www.w3.org/2000/svg">
<path d="M9.60624 14.9115C9.97313 14.7461 10.2092 14.3835 10.2092 13.9828V1.76864C10.2092 1.36786 9.97313 1.00526 9.60624 0.839856C9.23934 0.674456 8.80864 0.741253 8.50875 1.00844L4.20492 4.82217H2.04184C0.915639 4.82217 0 5.73505 0 6.85786V8.89355C0 10.0164 0.915639 10.9292 2.04184 10.9292H4.20492L8.50875 14.743C8.80864 15.0102 9.23934 15.0738 9.60624 14.9115ZM13.5591 10.7066L15.3138 8.95716L17.0685 10.7066C17.3684 11.0056 17.8534 11.0056 18.1501 10.7066C18.4468 10.4076 18.45 9.92411 18.1501 9.6283L16.3954 7.87888L18.1501 6.12946C18.45 5.83047 18.45 5.347 18.1501 5.05119C17.8502 4.75537 17.3652 4.75219 17.0685 5.05119L15.3138 6.8006L13.5591 5.05119C13.2592 4.75219 12.7743 4.75219 12.4776 5.05119C12.1809 5.35018 12.1777 5.83365 12.4776 6.12946L14.2323 7.87888L12.4776 9.6283C12.1777 9.92729 12.1777 10.4108 12.4776 10.7066C12.7775 11.0024 13.2624 11.0056 13.5591 10.7066Z" fill="white"/>
</svg>
