<svg width="19" height="21" viewBox="0 0 19 21" fill="none" xmlns="http://www.w3.org/2000/svg">
<path fill-rule="evenodd" clip-rule="evenodd" d="M12.9112 15.7394C11.6234 16.5265 10.1097 16.98 8.49 16.98C3.8011 16.98 0 13.1789 0 8.49C0 3.8011 3.8011 0 8.49 0C13.1789 0 16.98 3.8011 16.98 8.49C16.98 10.8344 16.0298 12.9569 14.4934 14.4933L18.3415 18.3414C18.7321 18.7319 18.7321 19.3651 18.3415 19.7556C17.951 20.1461 17.3179 20.1461 16.9273 19.7556L12.9112 15.7394ZM14.98 8.49C14.98 12.0743 12.0743 14.98 8.49 14.98C4.90567 14.98 2 12.0743 2 8.49C2 4.90567 4.90567 2 8.49 2C12.0743 2 14.98 4.90567 14.98 8.49Z" fill="#39C5BB"/>
</svg>
