<svg width="20" height="16" viewBox="0 0 20 16" fill="none" xmlns="http://www.w3.org/2000/svg">
<path d="M16.675 1.01555C18.7031 2.66555 20 5.18117 20 7.99992C20 10.8187 18.7031 13.3374 16.675 14.9843C16.3531 15.2468 15.8812 15.1968 15.6187 14.8749C15.3562 14.553 15.4062 14.0812 15.7281 13.8187C17.4219 12.4437 18.5 10.3499 18.5 7.99992C18.5 5.64992 17.4219 3.55617 15.7281 2.17805C15.4062 1.91555 15.3594 1.44367 15.6187 1.1218C15.8781 0.799924 16.3531 0.753049 16.675 1.01242V1.01555ZM14.7844 3.34367C16.1344 4.44367 17 6.1218 17 7.99992C17 9.87805 16.1344 11.5562 14.7844 12.6562C14.4625 12.9187 13.9906 12.8687 13.7281 12.5468C13.4656 12.2249 13.5156 11.7531 13.8375 11.4906C14.8531 10.6656 15.5 9.4093 15.5 7.99992C15.5 6.59055 14.8531 5.3343 13.8375 4.50617C13.5156 4.24367 13.4687 3.7718 13.7281 3.44992C13.9875 3.12805 14.4625 3.08117 14.7844 3.34055V3.34367ZM12.8938 5.6718C13.5656 6.2218 14 7.0593 14 7.99992C14 8.94055 13.5656 9.77805 12.8938 10.328C12.5719 10.5905 12.1 10.5405 11.8375 10.2187C11.575 9.8968 11.625 9.42493 11.9469 9.16243C12.2844 8.88743 12.5 8.46867 12.5 7.99992C12.5 7.53117 12.2844 7.11242 11.9469 6.8343C11.625 6.5718 11.5781 6.09992 11.8375 5.77805C12.0969 5.45617 12.5719 5.4093 12.8938 5.66867V5.6718ZM9.40938 1.08742C9.76875 1.24992 10 1.60617 10 1.99992V13.9999C10 14.3937 9.76875 14.7499 9.40938 14.9124C9.05 15.0749 8.62813 15.0093 8.33438 14.7468L4.11875 10.9999H2C0.896875 10.9999 0 10.103 0 8.99992V6.99992C0 5.8968 0.896875 4.99992 2 4.99992H4.11875L8.33438 1.25305C8.62813 0.990549 9.05 0.928049 9.40938 1.08742Z" fill="white"/>
</svg>
